<svg width="180" height="180" viewBox="0 0 180 180" fill="none" xmlns="http://www.w3.org/2000/svg">
<rect width="180" height="180" fill="#F5D0CD" fill-opacity="0.49"/>
<path d="M106.36 84.875H76.2658C75.7971 86 75.2346 87.1016 74.5783 88.1797C73.9221 89.2578 73.1252 90.1719 72.1877 90.9219L76.2658 135.5H106.36L110.438 90.9219C109.5 90.0781 108.703 89.1406 108.047 88.1094C107.391 87.0781 106.828 86 106.36 84.875ZM74.7189 62.375L73.1721 68.5625C73.8283 69.3125 74.4142 70.1094 74.9299 70.9531C75.4455 71.7969 75.8908 72.6875 76.2658 73.625H106.36C106.735 72.6875 107.18 71.7969 107.695 70.9531C108.211 70.1094 108.797 69.3125 109.453 68.5625L107.906 62.375H74.7189ZM76.2658 146.75C73.3596 146.75 70.8283 145.789 68.6721 143.867C66.5158 141.945 65.2971 139.531 65.0158 136.625L60.6564 87.9688C60.5627 87.0313 60.7267 86.1641 61.1486 85.3672C61.5705 84.5703 62.2033 83.9375 63.0471 83.4688C63.7971 83 64.4533 82.4375 65.0158 81.7813C65.5783 81.125 65.8596 80.3281 65.8596 79.3906C65.8596 78.5469 65.6721 77.7734 65.2971 77.0703C64.9221 76.3672 64.3596 75.7813 63.6096 75.3125C62.6721 74.8438 61.9689 74.1172 61.5002 73.1328C61.0314 72.1484 60.9377 71.1406 61.2189 70.1094L64.8752 55.3438C65.1564 54.0313 65.8127 53 66.8439 52.25C67.8752 51.5 69.0471 51.125 70.3596 51.125H85.6877V45.5H77.2502V34.25H105.375V45.5H96.9377V51.125H112.266C113.578 51.125 114.727 51.5 115.711 52.25C116.695 53 117.328 54.0313 117.61 55.3438L121.406 70.1094C121.688 71.1406 121.594 72.1484 121.125 73.1328C120.656 74.1172 119.953 74.8438 119.016 75.3125C118.266 75.6875 117.68 76.2031 117.258 76.8594C116.836 77.5156 116.625 78.2656 116.625 79.1094C116.625 80.1406 116.883 81.0078 117.399 81.7109C117.914 82.4141 118.594 83 119.438 83.4688C120.281 83.9375 120.938 84.5703 121.406 85.3672C121.875 86.1641 122.063 87.0313 121.969 87.9688L117.61 136.484C117.328 139.391 116.11 141.828 113.953 143.797C111.797 145.766 109.266 146.75 106.36 146.75H76.2658Z" fill="white"/>
</svg>
