<svg width="31" height="62" viewBox="0 0 31 62" fill="none" xmlns="http://www.w3.org/2000/svg">
<path d="M1.47328 46V44.48C2.87328 43.2267 4.05328 42.08 5.01328 41.04C5.98661 39.9867 6.71995 39.0133 7.21328 38.12C7.71995 37.2133 7.97328 36.3667 7.97328 35.58C7.97328 35.0733 7.87995 34.6333 7.69328 34.26C7.51995 33.8733 7.25995 33.5733 6.91328 33.36C6.56661 33.1467 6.13328 33.04 5.61328 33.04C5.05328 33.04 4.53995 33.1933 4.07328 33.5C3.61995 33.8067 3.19995 34.18 2.81328 34.62L1.35328 33.18C2.00661 32.4733 2.68661 31.9267 3.39328 31.54C4.11328 31.1533 4.96661 30.96 5.95328 30.96C6.87328 30.96 7.67328 31.1467 8.35328 31.52C9.03328 31.8933 9.55995 32.4133 9.93328 33.08C10.3199 33.7467 10.5133 34.5333 10.5133 35.44C10.5133 36.36 10.2799 37.2933 9.81328 38.24C9.35995 39.1867 8.73995 40.14 7.95328 41.1C7.17995 42.0467 6.30661 42.9933 5.33328 43.94C5.71995 43.9 6.13328 43.8667 6.57328 43.84C7.01328 43.8 7.40662 43.78 7.75328 43.78H11.1933V46H1.47328ZM19.0548 30.08C19.9882 30.08 20.8148 30.2467 21.5348 30.58C22.2548 30.9133 22.8215 31.3733 23.2348 31.96C23.6482 32.5333 23.8548 33.2067 23.8548 33.98C23.8548 34.7267 23.6482 35.3933 23.2348 35.98C22.8215 36.5667 22.2548 37.0267 21.5348 37.36C20.8148 37.6933 19.9882 37.86 19.0548 37.86C18.1348 37.86 17.3148 37.6933 16.5948 37.36C15.8748 37.0267 15.3082 36.5667 14.8948 35.98C14.4815 35.3933 14.2748 34.7267 14.2748 33.98C14.2748 33.2067 14.4815 32.5333 14.8948 31.96C15.3082 31.3733 15.8748 30.9133 16.5948 30.58C17.3148 30.2467 18.1348 30.08 19.0548 30.08ZM19.0548 32.02C18.5748 32.02 18.1482 32.1 17.7748 32.26C17.4015 32.4067 17.1015 32.6267 16.8748 32.92C16.6615 33.2133 16.5548 33.5667 16.5548 33.98C16.5548 34.38 16.6615 34.7267 16.8748 35.02C17.1015 35.3 17.4015 35.52 17.7748 35.68C18.1482 35.8267 18.5748 35.9 19.0548 35.9C19.5482 35.9 19.9815 35.8267 20.3548 35.68C20.7282 35.52 21.0215 35.3 21.2348 35.02C21.4615 34.7267 21.5748 34.38 21.5748 33.98C21.5748 33.5667 21.4615 33.2133 21.2348 32.92C21.0215 32.6267 20.7282 32.4067 20.3548 32.26C19.9815 32.1 19.5482 32.02 19.0548 32.02ZM17.9548 39.76H20.3348V47.14H17.9548V39.76ZM26.0148 29.32H28.3948V47.7H26.0148V29.32ZM13.3948 41.02L13.1148 39.08C14.2082 39.08 15.4148 39.0733 16.7348 39.06C18.0682 39.0333 19.4348 38.9733 20.8348 38.88C22.2482 38.7867 23.6082 38.64 24.9148 38.44L25.0548 40.18C23.7215 40.4467 22.3615 40.64 20.9748 40.76C19.5882 40.8667 18.2482 40.9333 16.9548 40.96C15.6615 40.9867 14.4748 41.0067 13.3948 41.02Z" fill="#999999"/>
<path d="M24.8883 18.9H7.33828C6.96703 18.9 6.66328 19.2038 6.66328 19.575V20.925C6.66328 21.2963 6.96703 21.6 7.33828 21.6H24.8883C25.2595 21.6 25.5633 21.2963 25.5633 20.925V19.575C25.5633 19.2038 25.2595 18.9 24.8883 18.9ZM27.5883 5.4C26.4703 5.4 25.5633 6.30703 25.5633 7.425C25.5633 7.72453 25.6308 8.00297 25.7489 8.26031L22.6945 10.0913C22.0448 10.4794 21.2053 10.26 20.8298 9.60188L17.3916 3.58594C17.843 3.21469 18.1383 2.65781 18.1383 2.025C18.1383 0.907031 17.2313 0 16.1133 0C14.9953 0 14.0883 0.907031 14.0883 2.025C14.0883 2.65781 14.3836 3.21469 14.835 3.58594L11.3967 9.60188C11.0213 10.26 10.1775 10.4794 9.53203 10.0913L6.48187 8.26031C6.59578 8.00719 6.6675 7.72453 6.6675 7.425C6.6675 6.30703 5.76047 5.4 4.6425 5.4C3.52453 5.4 2.61328 6.30703 2.61328 7.425C2.61328 8.54297 3.52031 9.45 4.63828 9.45C4.74797 9.45 4.85766 9.43313 4.96313 9.41625L8.01328 17.55H24.2133L27.2634 9.41625C27.3689 9.43313 27.4786 9.45 27.5883 9.45C28.7063 9.45 29.6133 8.54297 29.6133 7.425C29.6133 6.30703 28.7063 5.4 27.5883 5.4Z" fill="#DADADA"/>
</svg>
