<svg width="30" height="48" viewBox="0 0 30 48" fill="none" xmlns="http://www.w3.org/2000/svg">
<path d="M0.86 46V44.48C2.26 43.2267 3.44 42.08 4.4 41.04C5.37333 39.9867 6.10667 39.0133 6.6 38.12C7.10667 37.2133 7.36 36.3667 7.36 35.58C7.36 35.0733 7.26667 34.6333 7.08 34.26C6.90667 33.8733 6.64667 33.5733 6.3 33.36C5.95333 33.1467 5.52 33.04 5 33.04C4.44 33.04 3.92667 33.1933 3.46 33.5C3.00667 33.8067 2.58667 34.18 2.2 34.62L0.74 33.18C1.39333 32.4733 2.07333 31.9267 2.78 31.54C3.5 31.1533 4.35333 30.96 5.34 30.96C6.26 30.96 7.06 31.1467 7.74 31.52C8.42 31.8933 8.94667 32.4133 9.32 33.08C9.70667 33.7467 9.9 34.5333 9.9 35.44C9.9 36.36 9.66667 37.2933 9.2 38.24C8.74667 39.1867 8.12667 40.14 7.34 41.1C6.56667 42.0467 5.69333 42.9933 4.72 43.94C5.10667 43.9 5.52 43.8667 5.96 43.84C6.4 43.8 6.79333 43.78 7.14 43.78H10.58V46H0.86ZM18.4416 30.08C19.3749 30.08 20.2016 30.2467 20.9216 30.58C21.6416 30.9133 22.2082 31.3733 22.6216 31.96C23.0349 32.5333 23.2416 33.2067 23.2416 33.98C23.2416 34.7267 23.0349 35.3933 22.6216 35.98C22.2082 36.5667 21.6416 37.0267 20.9216 37.36C20.2016 37.6933 19.3749 37.86 18.4416 37.86C17.5216 37.86 16.7016 37.6933 15.9816 37.36C15.2616 37.0267 14.6949 36.5667 14.2816 35.98C13.8682 35.3933 13.6616 34.7267 13.6616 33.98C13.6616 33.2067 13.8682 32.5333 14.2816 31.96C14.6949 31.3733 15.2616 30.9133 15.9816 30.58C16.7016 30.2467 17.5216 30.08 18.4416 30.08ZM18.4416 32.02C17.9616 32.02 17.5349 32.1 17.1616 32.26C16.7882 32.4067 16.4882 32.6267 16.2616 32.92C16.0482 33.2133 15.9416 33.5667 15.9416 33.98C15.9416 34.38 16.0482 34.7267 16.2616 35.02C16.4882 35.3 16.7882 35.52 17.1616 35.68C17.5349 35.8267 17.9616 35.9 18.4416 35.9C18.9349 35.9 19.3682 35.8267 19.7416 35.68C20.1149 35.52 20.4082 35.3 20.6216 35.02C20.8482 34.7267 20.9616 34.38 20.9616 33.98C20.9616 33.5667 20.8482 33.2133 20.6216 32.92C20.4082 32.6267 20.1149 32.4067 19.7416 32.26C19.3682 32.1 18.9349 32.02 18.4416 32.02ZM17.3416 39.76H19.7216V47.14H17.3416V39.76ZM25.4016 29.32H27.7816V47.7H25.4016V29.32ZM12.7816 41.02L12.5016 39.08C13.5949 39.08 14.8016 39.0733 16.1216 39.06C17.4549 39.0333 18.8216 38.9733 20.2216 38.88C21.6349 38.7867 22.9949 38.64 24.3016 38.44L24.4416 40.18C23.1082 40.4467 21.7482 40.64 20.3616 40.76C18.9749 40.8667 17.6349 40.9333 16.3416 40.96C15.0482 40.9867 13.8616 41.0067 12.7816 41.02Z" fill="#999999"/>
<path d="M24.275 18.9H6.725C6.35375 18.9 6.05 19.2038 6.05 19.575V20.925C6.05 21.2963 6.35375 21.6 6.725 21.6H24.275C24.6463 21.6 24.95 21.2963 24.95 20.925V19.575C24.95 19.2038 24.6463 18.9 24.275 18.9ZM26.975 5.4C25.857 5.4 24.95 6.30703 24.95 7.425C24.95 7.72453 25.0175 8.00297 25.1356 8.26031L22.0813 10.0913C21.4316 10.4794 20.592 10.26 20.2166 9.60188L16.7783 3.58594C17.2297 3.21469 17.525 2.65781 17.525 2.025C17.525 0.907031 16.618 0 15.5 0C14.382 0 13.475 0.907031 13.475 2.025C13.475 2.65781 13.7703 3.21469 14.2217 3.58594L10.7834 9.60188C10.408 10.26 9.56422 10.4794 8.91875 10.0913L5.86859 8.26031C5.9825 8.00719 6.05422 7.72453 6.05422 7.425C6.05422 6.30703 5.14719 5.4 4.02922 5.4C2.91125 5.4 2 6.30703 2 7.425C2 8.54297 2.90703 9.45 4.025 9.45C4.13469 9.45 4.24438 9.43313 4.34984 9.41625L7.4 17.55H23.6L26.6502 9.41625C26.7556 9.43313 26.8653 9.45 26.975 9.45C28.093 9.45 29 8.54297 29 7.425C29 6.30703 28.093 5.4 26.975 5.4Z" fill="#DADADA"/>
</svg>
