<svg width="40" height="40" viewBox="0 0 40 40" fill="none" xmlns="http://www.w3.org/2000/svg">
<path d="M21.3919 18.6007V1.39561C21.3919 1.02547 21.2448 0.670492 20.9831 0.408765C20.7214 0.147037 20.3664 0 19.9963 0C19.6261 0 19.2712 0.147037 19.0094 0.408765C18.7477 0.670492 18.6007 1.02547 18.6007 1.39561V18.6007H1.39561C1.02547 18.6007 0.670492 18.7477 0.408765 19.0094C0.147037 19.2712 0 19.6261 0 19.9963C0 20.3664 0.147037 20.7214 0.408765 20.9831C0.670492 21.2448 1.02547 21.3919 1.39561 21.3919H18.6007V38.61C18.6007 38.9801 18.7477 39.3351 19.0094 39.5968C19.2712 39.8585 19.6261 40.0056 19.9963 40.0056C20.3664 40.0056 20.7214 39.8585 20.9831 39.5968C21.2448 39.3351 21.3919 38.9801 21.3919 38.61V21.3919L38.6044 21.3975C38.9745 21.3975 39.3295 21.2504 39.5912 20.9887C39.853 20.727 40 20.372 40 20.0019C40 19.6317 39.853 19.2767 39.5912 19.015C39.3295 18.7533 38.9745 18.6063 38.6044 18.6063L21.3919 18.6007Z" fill="#F5D0CD"/>
</svg>
