<svg width="8" height="18" viewBox="0 0 8 18" fill="none" xmlns="http://www.w3.org/2000/svg">
<path d="M6.41475 17.3866L0.202765 9.84154C0.129032 9.75172 0.0769276 9.65441 0.0464514 9.54962C0.0154837 9.44483 0 9.33255 0 9.21279C0 9.09302 0.0154837 8.98075 0.0464514 8.87595C0.0769276 8.77116 0.129032 8.67385 0.202765 8.58403L6.41475 1.01653C6.58679 0.806941 6.80184 0.702148 7.05991 0.702148C7.31797 0.702148 7.53917 0.814426 7.7235 1.03898C7.90783 1.26354 8 1.52552 8 1.82492C8 2.12433 7.90783 2.38631 7.7235 2.61087L2.30415 9.21279L7.7235 15.8147C7.89555 16.0243 7.98157 16.2824 7.98157 16.589C7.98157 16.8962 7.8894 17.162 7.70507 17.3866C7.52074 17.6111 7.30568 17.7234 7.05991 17.7234C6.81413 17.7234 6.59908 17.6111 6.41475 17.3866Z" fill="#B2B2B2"/>
</svg>
