<svg width="16" height="16" viewBox="0 0 16 16" fill="none" xmlns="http://www.w3.org/2000/svg">
<path d="M15.9854 7.72752L14.1494 1.36675C14.0894 1.15 13.8922 1 13.6674 1H2.17768C1.95118 1 1.75293 1.15225 1.69418 1.37152L0.0161823 7.40827C-0.0148177 7.52552 0.000416633 7.64275 0.0474166 7.74477C0.0204166 7.83527 0.00143225 7.92952 0.00143225 8.02877V13.518C0.00143225 14.0703 0.449182 14.518 1.00143 14.518H15.0014C15.5537 14.518 16.0014 14.0703 16.0014 13.518V8.02877C16.0014 8.00202 15.9957 7.97675 15.9937 7.95052C16.0067 7.87877 16.0064 7.80302 15.9854 7.72752ZM2.56235 2.00002L13.2869 2L14.7419 7.02875H10.0804C10.0579 8.229 9.20687 9.05502 8.00135 9.05502C6.79584 9.05502 5.96035 8.22877 5.93785 7.02877H1.1601L2.56235 2.00002ZM15.0014 13.518H1.0014V8.02875H5.11265C5.54915 9.2855 6.60914 10.055 8.00139 10.055C9.39364 10.055 10.4691 9.2855 10.9056 8.02875H15.0014V13.518Z" fill="#E3A6A1"/>
</svg>
