<svg width="16" height="18" viewBox="0 0 16 18" fill="none" xmlns="http://www.w3.org/2000/svg">
<path d="M14.4545 16.7549L10.6141 12.6635C9.91398 11.9177 8.7509 11.8861 7.79545 12.2514C7.20455 12.4774 6.57576 12.5904 5.90909 12.5904C4.25758 12.5904 2.86 11.9812 1.71636 10.7629C0.572121 9.54386 0 8.05464 0 6.29521C0 4.53578 0.572121 3.04656 1.71636 1.82755C2.86 0.609183 4.25758 0 5.90909 0C7.56061 0 8.95848 0.609183 10.1027 1.82755C11.2464 3.04656 11.8182 4.53578 11.8182 6.29521C11.8182 7.00544 11.7121 7.67531 11.5 8.30483C11.1513 9.3396 11.1817 10.5564 11.929 11.3526L15.75 15.4233C15.9167 15.6008 16 15.8187 16 16.077C16 16.3353 15.9091 16.5612 15.7273 16.7549C15.5606 16.9325 15.3485 17.0213 15.0909 17.0213C14.8333 17.0213 14.6212 16.9325 14.4545 16.7549ZM5.90909 10.6534C7.04545 10.6534 8.01151 10.2299 8.80727 9.38277C9.60242 8.53501 10 7.50583 10 6.29521C10 5.08459 9.60242 4.05541 8.80727 3.20765C8.01151 2.36054 7.04545 1.93699 5.90909 1.93699C4.77273 1.93699 3.80667 2.36054 3.01091 3.20765C2.21576 4.05541 1.81818 5.08459 1.81818 6.29521C1.81818 7.50583 2.21576 8.53501 3.01091 9.38277C3.80667 10.2299 4.77273 10.6534 5.90909 10.6534Z" fill="#BC5F6A"/>
</svg>
