<svg width="9" height="6" viewBox="0 0 9 6" fill="none" xmlns="http://www.w3.org/2000/svg">
<path d="M0.178101 4.26512L4.16755 0.134817C4.21504 0.0857925 4.26649 0.0511487 4.3219 0.0308852C4.37731 0.010295 4.43668 0 4.5 0C4.56332 0 4.62269 0.010295 4.6781 0.0308852C4.73351 0.0511487 4.78496 0.0857925 4.83245 0.134817L8.83377 4.26512C8.94459 4.37951 9 4.5225 9 4.69409C9 4.86567 8.94063 5.01275 8.8219 5.13531C8.70317 5.25787 8.56464 5.31915 8.40633 5.31915C8.24802 5.31915 8.1095 5.25787 7.99077 5.13531L4.5 1.53201L1.00923 5.13531C0.898417 5.2497 0.761952 5.30689 0.599842 5.30689C0.437414 5.30689 0.296834 5.24561 0.178101 5.12305C0.0593672 5.00049 0 4.8575 0 4.69409C0 4.53067 0.0593672 4.38769 0.178101 4.26512Z" fill="#878787"/>
</svg>
