<svg width="48" height="66" viewBox="0 0 48 66" fill="none" xmlns="http://www.w3.org/2000/svg">
<path d="M2.688 55V51.576H7.84V35.896H3.552V33.272C4.704 33.0587 5.696 32.8027 6.528 32.504C7.38133 32.184 8.16 31.8 8.864 31.352H12V51.576H16.544V55H2.688ZM29.5065 29.528C30.9998 29.528 32.3225 29.7947 33.4745 30.328C34.6265 30.8613 35.5332 31.5973 36.1945 32.536C36.8558 33.4533 37.1865 34.5307 37.1865 35.768C37.1865 36.9627 36.8558 38.0293 36.1945 38.968C35.5332 39.9067 34.6265 40.6427 33.4745 41.176C32.3225 41.7093 30.9998 41.976 29.5065 41.976C28.0345 41.976 26.7225 41.7093 25.5705 41.176C24.4185 40.6427 23.5118 39.9067 22.8505 38.968C22.1892 38.0293 21.8585 36.9627 21.8585 35.768C21.8585 34.5307 22.1892 33.4533 22.8505 32.536C23.5118 31.5973 24.4185 30.8613 25.5705 30.328C26.7225 29.7947 28.0345 29.528 29.5065 29.528ZM29.5065 32.632C28.7385 32.632 28.0558 32.76 27.4585 33.016C26.8612 33.2507 26.3812 33.6027 26.0185 34.072C25.6772 34.5413 25.5065 35.1067 25.5065 35.768C25.5065 36.408 25.6772 36.9627 26.0185 37.432C26.3812 37.88 26.8612 38.232 27.4585 38.488C28.0558 38.7227 28.7385 38.84 29.5065 38.84C30.2958 38.84 30.9892 38.7227 31.5865 38.488C32.1838 38.232 32.6532 37.88 32.9945 37.432C33.3572 36.9627 33.5385 36.408 33.5385 35.768C33.5385 35.1067 33.3572 34.5413 32.9945 34.072C32.6532 33.6027 32.1838 33.2507 31.5865 33.016C30.9892 32.76 30.2958 32.632 29.5065 32.632ZM27.7465 45.016H31.5545V56.824H27.7465V45.016ZM40.6425 28.312H44.4505V57.72H40.6425V28.312ZM20.4505 47.032L20.0025 43.928C21.7518 43.928 23.6825 43.9173 25.7945 43.896C27.9278 43.8533 30.1145 43.7573 32.3545 43.608C34.6158 43.4587 36.7918 43.224 38.8825 42.904L39.1065 45.688C36.9732 46.1147 34.7972 46.424 32.5785 46.616C30.3598 46.7867 28.2158 46.8933 26.1465 46.936C24.0772 46.9787 22.1785 47.0107 20.4505 47.032Z" fill="#CEB172"/>
<path d="M39.75 21H20.25C19.8375 21 19.5 21.3375 19.5 21.75V23.25C19.5 23.6625 19.8375 24 20.25 24H39.75C40.1625 24 40.5 23.6625 40.5 23.25V21.75C40.5 21.3375 40.1625 21 39.75 21ZM42.75 6C41.5078 6 40.5 7.00781 40.5 8.25C40.5 8.58281 40.575 8.89219 40.7063 9.17813L37.3125 11.2125C36.5906 11.6438 35.6578 11.4 35.2406 10.6688L31.4203 3.98438C31.9219 3.57188 32.25 2.95312 32.25 2.25C32.25 1.00781 31.2422 0 30 0C28.7578 0 27.75 1.00781 27.75 2.25C27.75 2.95312 28.0781 3.57188 28.5797 3.98438L24.7594 10.6688C24.3422 11.4 23.4047 11.6438 22.6875 11.2125L19.2984 9.17813C19.425 8.89688 19.5047 8.58281 19.5047 8.25C19.5047 7.00781 18.4969 6 17.2547 6C16.0125 6 15 7.00781 15 8.25C15 9.49219 16.0078 10.5 17.25 10.5C17.3719 10.5 17.4938 10.4812 17.6109 10.4625L21 19.5H39L42.3891 10.4625C42.5062 10.4812 42.6281 10.5 42.75 10.5C43.9922 10.5 45 9.49219 45 8.25C45 7.00781 43.9922 6 42.75 6Z" fill="#FFCE4F"/>
</svg>
