<svg width="17" height="33" viewBox="0 0 17 33" fill="none" xmlns="http://www.w3.org/2000/svg">
<path d="M0.400425 17.4454L14.7883 32.4544C15.0284 32.705 15.3473 32.8447 15.679 32.8447C16.0107 32.8447 16.3296 32.705 16.5697 32.4544L16.5852 32.4374C16.702 32.316 16.795 32.1698 16.8585 32.0077C16.922 31.8457 16.9548 31.6711 16.9548 31.4948C16.9548 31.3184 16.922 31.1439 16.8585 30.9819C16.795 30.8198 16.702 30.6736 16.5852 30.5521L3.03635 16.4194L16.5852 2.29235C16.702 2.17089 16.795 2.02468 16.8585 1.86262C16.922 1.70057 16.9548 1.52605 16.9548 1.3497C16.9548 1.17334 16.922 0.998827 16.8585 0.836773C16.795 0.674721 16.702 0.528511 16.5852 0.407047L16.5697 0.390087C16.3296 0.139526 16.0107 -0.000247955 15.679 -0.000247955C15.3473 -0.000247955 15.0284 0.139526 14.7883 0.390087L0.400425 15.399C0.273889 15.531 0.173153 15.6898 0.104322 15.8657C0.0354918 16.0415 0 16.2309 0 16.4222C0 16.6136 0.0354918 16.8029 0.104322 16.9788C0.173153 17.1547 0.273889 17.3135 0.400425 17.4454Z" fill="#D9D3C3"/>
</svg>
