<svg width="17" height="18" viewBox="0 0 17 18" fill="none" xmlns="http://www.w3.org/2000/svg">
<path d="M16.3477 10.9736L15.0684 9.87988C15.1289 9.50879 15.1602 9.12988 15.1602 8.75098C15.1602 8.37207 15.1289 7.99316 15.0684 7.62207L16.3477 6.52832C16.4442 6.44572 16.5132 6.33569 16.5457 6.21289C16.5781 6.09008 16.5724 5.96031 16.5293 5.84082L16.5117 5.79004C16.1595 4.80572 15.6322 3.89323 14.9551 3.09668L14.9199 3.05566C14.8378 2.95909 14.7283 2.88966 14.6059 2.85654C14.4836 2.82342 14.354 2.82815 14.2344 2.87012L12.6465 3.43457C12.0606 2.9541 11.4063 2.5752 10.6992 2.30957L10.3926 0.649414C10.3694 0.524496 10.3089 0.409575 10.2188 0.319918C10.1288 0.23026 10.0137 0.170111 9.88868 0.147461L9.83594 0.137695C8.81836 -0.0458984 7.74805 -0.0458984 6.73047 0.137695L6.67774 0.147461C6.55273 0.170111 6.43758 0.23026 6.34757 0.319918C6.25756 0.409575 6.19697 0.524496 6.17383 0.649414L5.86524 2.31738C5.16385 2.58306 4.51068 2.96177 3.93164 3.43848L2.33204 2.87012C2.21244 2.82782 2.0828 2.82291 1.96035 2.85605C1.83789 2.8892 1.72843 2.95882 1.64649 3.05566L1.61133 3.09668C0.935055 3.8938 0.407769 4.80613 0.0546915 5.79004L0.0371133 5.84082C-0.0507773 6.08496 0.0214883 6.3584 0.218754 6.52832L1.51368 7.63379C1.45313 8.00098 1.42383 8.37598 1.42383 8.74902C1.42383 9.12402 1.45313 9.49902 1.51368 9.86426L0.218754 10.9697C0.122261 11.0523 0.0532001 11.1624 0.0207539 11.2852C-0.0116923 11.408 -0.00598633 11.5377 0.0371133 11.6572L0.0546915 11.708C0.408207 12.6924 0.931645 13.6006 1.61133 14.4014L1.64649 14.4424C1.72863 14.539 1.8381 14.6084 1.96048 14.6415C2.08286 14.6746 2.2124 14.6699 2.33204 14.6279L3.93164 14.0596C4.51368 14.5381 5.16407 14.917 5.86524 15.1807L6.17383 16.8486C6.19697 16.9736 6.25756 17.0885 6.34757 17.1781C6.43758 17.2678 6.55273 17.3279 6.67774 17.3506L6.73047 17.3604C7.7574 17.5449 8.80901 17.5449 9.83594 17.3604L9.88868 17.3506C10.0137 17.3279 10.1288 17.2678 10.2188 17.1781C10.3089 17.0885 10.3694 16.9736 10.3926 16.8486L10.6992 15.1885C11.406 14.9235 12.064 14.5434 12.6465 14.0635L14.2344 14.6279C14.354 14.6702 14.4836 14.6751 14.6061 14.642C14.7285 14.6089 14.838 14.5392 14.9199 14.4424L14.9551 14.4014C15.6348 13.5986 16.1582 12.6924 16.5117 11.708L16.5293 11.6572C16.6172 11.417 16.5449 11.1436 16.3477 10.9736ZM13.6816 7.85254C13.7305 8.14746 13.7559 8.4502 13.7559 8.75293C13.7559 9.05566 13.7305 9.3584 13.6816 9.65332L13.5527 10.4365L15.0117 11.6846C14.7905 12.1941 14.5114 12.6765 14.1797 13.1221L12.3672 12.4795L11.7539 12.9834C11.2871 13.3662 10.7676 13.667 10.2051 13.8779L9.46094 14.1572L9.11133 16.0518C8.55971 16.1143 8.0028 16.1143 7.45118 16.0518L7.10157 14.1533L6.36329 13.8701C5.80664 13.6592 5.28907 13.3584 4.82618 12.9775L4.21289 12.4717L2.38868 13.1201C2.05664 12.6729 1.7793 12.1904 1.55664 11.6826L3.03125 10.4229L2.9043 9.6416C2.85743 9.35059 2.83204 9.0498 2.83204 8.75293C2.83204 8.4541 2.85547 8.15527 2.9043 7.86426L3.03125 7.08301L1.55664 5.82324C1.77735 5.31348 2.05664 4.83301 2.38868 4.38574L4.21289 5.03418L4.82618 4.52832C5.28907 4.14746 5.80664 3.84668 6.36329 3.63574L7.10352 3.35645L7.45313 1.45801C8.00196 1.39551 8.5625 1.39551 9.11329 1.45801L9.46289 3.35254L10.207 3.63184C10.7676 3.84277 11.2891 4.14355 11.7559 4.52637L12.3691 5.03027L14.1816 4.3877C14.5137 4.83496 14.791 5.31738 15.0137 5.8252L13.5547 7.07324L13.6816 7.85254ZM8.28516 5.12012C6.38672 5.12012 4.84766 6.65918 4.84766 8.55762C4.84766 10.4561 6.38672 11.9951 8.28516 11.9951C10.1836 11.9951 11.7227 10.4561 11.7227 8.55762C11.7227 6.65918 10.1836 5.12012 8.28516 5.12012ZM9.83204 10.1045C9.62915 10.308 9.38803 10.4693 9.12256 10.5793C8.85709 10.6892 8.5725 10.7456 8.28516 10.7451C7.70118 10.7451 7.15235 10.5166 6.73829 10.1045C6.53481 9.90161 6.37347 9.66049 6.26353 9.39502C6.15358 9.12955 6.09721 8.84495 6.09766 8.55762C6.09766 7.97363 6.32618 7.4248 6.73829 7.01074C7.15235 6.59668 7.70118 6.37012 8.28516 6.37012C8.86914 6.37012 9.41797 6.59668 9.83204 7.01074C10.0355 7.21363 10.1969 7.45474 10.3068 7.72022C10.4167 7.98569 10.4731 8.27028 10.4727 8.55762C10.4727 9.1416 10.2441 9.69043 9.83204 10.1045Z" fill="#929292"/>
</svg>
