<svg width="38" height="60" viewBox="0 0 38 60" fill="none" xmlns="http://www.w3.org/2000/svg">
<path d="M35.6332 57.942L34.5744 59.5004C34.8239 59.735 35.1245 59.882 35.4418 59.9244C35.759 59.9668 36.08 59.903 36.3678 59.7402C36.6556 59.5774 36.8986 59.3223 37.0688 59.0042C37.239 58.6861 37.3295 58.318 37.33 57.942H35.6332ZM35.6332 1.998H37.33V0H35.6332V1.998ZM1.69682 1.998V0H0V1.998H1.69682ZM1.69682 57.942H0C0.00045452 58.318 0.090987 58.6861 0.261192 59.0042C0.431398 59.3223 0.674369 59.5774 0.962183 59.7402C1.25 59.903 1.57097 59.9668 1.88823 59.9244C2.20548 59.882 2.50613 59.735 2.75563 59.5004L1.69682 57.942ZM18.665 41.958L19.7238 40.3996C19.4231 40.1168 19.0498 39.9628 18.665 39.9628C18.2802 39.9628 17.9069 40.1168 17.6062 40.3996L18.665 41.958ZM37.33 57.942V1.998H33.9364V57.942H37.33ZM0 1.998V57.942H3.39364V1.998H0ZM2.75563 59.5004L19.7238 43.5164L17.6062 40.3996L0.638004 56.3836L2.75563 59.5004ZM17.6062 43.5164L34.5744 59.5004L36.692 56.3836L19.7238 40.3996L17.6062 43.5164ZM35.6332 0H1.69682V3.996H35.6332V0Z" fill="#CEB172"/>
</svg>
