<svg width="10" height="10" viewBox="0 0 10 10" fill="none" xmlns="http://www.w3.org/2000/svg">
<path fill-rule="evenodd" clip-rule="evenodd" d="M7.36842 1.57895V1.05263C7.36842 0.773456 7.25752 0.505715 7.06011 0.308309C6.86271 0.110902 6.59496 0 6.31579 0H3.15789C2.87872 0 2.61098 0.110902 2.41357 0.308309C2.21617 0.505715 2.10526 0.773456 2.10526 1.05263V1.57895H0.526316C0.386728 1.57895 0.252858 1.6344 0.154154 1.7331C0.0554509 1.83181 0 1.96568 0 2.10526C0 2.24485 0.0554509 2.37872 0.154154 2.47742C0.252858 2.57613 0.386728 2.63158 0.526316 2.63158H1.05263V8.42105C1.05263 8.83982 1.21898 9.24143 1.51509 9.53754C1.8112 9.83365 2.21282 10 2.63158 10H6.84211C7.26087 10 7.66248 9.83365 7.95859 9.53754C8.2547 9.24143 8.42105 8.83982 8.42105 8.42105V2.63158H8.94737C9.08696 2.63158 9.22083 2.57613 9.31953 2.47742C9.41823 2.37872 9.47368 2.24485 9.47368 2.10526C9.47368 1.96568 9.41823 1.83181 9.31953 1.7331C9.22083 1.6344 9.08696 1.57895 8.94737 1.57895H7.36842ZM6.31579 1.05263H3.15789V1.57895H6.31579V1.05263ZM7.36842 2.63158H2.10526V8.42105C2.10526 8.56064 2.16071 8.69451 2.25942 8.79321C2.35812 8.89192 2.49199 8.94737 2.63158 8.94737H6.84211C6.98169 8.94737 7.11556 8.89192 7.21427 8.79321C7.31297 8.69451 7.36842 8.56064 7.36842 8.42105V2.63158Z" fill="#929292"/>
<path d="M3.15771 3.68427H4.21035V7.89479H3.15771V3.68427ZM5.26298 3.68427H6.31561V7.89479H5.26298V3.68427Z" fill="#929292"/>
</svg>
