<svg width="9" height="6" viewBox="0 0 9 6" fill="none" xmlns="http://www.w3.org/2000/svg">
<path d="M8.8219 1.05397L4.83245 5.18427C4.78496 5.2333 4.73351 5.26794 4.6781 5.28821C4.62269 5.3088 4.56332 5.31909 4.5 5.31909C4.43668 5.31909 4.37731 5.3088 4.3219 5.28821C4.26649 5.26794 4.21504 5.2333 4.16755 5.18427L0.166227 1.05397C0.0554089 0.939577 0 0.796589 0 0.625004C0 0.453418 0.0593668 0.306345 0.1781 0.183784C0.296834 0.061223 0.435356 -5.72205e-05 0.593668 -5.72205e-05C0.751979 -5.72205e-05 0.890501 0.061223 1.00923 0.183784L4.5 3.78708L7.99077 0.183784C8.10158 0.0693941 8.23805 0.0121984 8.40016 0.0121984C8.56259 0.0121984 8.70317 0.0734792 8.8219 0.19604C8.94063 0.318601 9 0.461589 9 0.625004C9 0.788419 8.94063 0.931406 8.8219 1.05397Z" fill="#878787"/>
</svg>
