<svg width="6" height="12" viewBox="0 0 6 12" fill="none" xmlns="http://www.w3.org/2000/svg">
<path d="M0.157712 11.07L4.76871 6.38503C4.86984 6.28281 4.92656 6.14482 4.92656 6.00103C4.92656 5.85724 4.86984 5.71925 4.76871 5.61703L0.158712 0.931027C0.0576367 0.828172 0.0010004 0.689734 0.0010004 0.545527C0.0010004 0.401321 0.0576367 0.262883 0.158712 0.160027C0.208089 0.109379 0.267105 0.0691266 0.332282 0.0416429C0.397459 0.0141592 0.467478 0 0.538212 0C0.608947 0 0.678966 0.0141592 0.744143 0.0416429C0.809319 0.0691266 0.868335 0.109379 0.917712 0.160027L5.52771 4.84403C5.83064 5.15255 6.00036 5.56765 6.00036 6.00003C6.00036 6.4324 5.83064 6.8475 5.52771 7.15603L0.917712 11.84C0.86832 11.8908 0.809242 11.9312 0.743973 11.9588C0.678703 11.9864 0.608568 12.0006 0.537713 12.0006C0.466857 12.0006 0.396721 11.9864 0.331452 11.9588C0.266183 11.9312 0.207105 11.8908 0.157712 11.84C0.0566368 11.7372 0 11.5987 0 11.4545C0 11.3103 0.0566368 11.1719 0.157712 11.069" fill="#BC5F6A"/>
</svg>
