<svg width="28" height="19" viewBox="0 0 28 19" fill="none" xmlns="http://www.w3.org/2000/svg">
<path d="M6.37328 17V7.64C6.37328 7.22667 6.38661 6.74 6.41328 6.18C6.43995 5.60667 6.45995 5.10667 6.47328 4.68H6.39328C6.20661 5.06667 6.01328 5.46 5.81328 5.86C5.62661 6.24667 5.42661 6.63333 5.21328 7.02L2.61328 11.08H10.6333V13.1H0.0332813V11.32L5.71328 2.22H8.81328V17H6.37328ZM18.0548 1.08C18.9882 1.08 19.8148 1.24667 20.5348 1.58C21.2548 1.91333 21.8215 2.37333 22.2348 2.96C22.6482 3.53333 22.8548 4.20667 22.8548 4.98C22.8548 5.72667 22.6482 6.39333 22.2348 6.98C21.8215 7.56667 21.2548 8.02667 20.5348 8.36C19.8148 8.69333 18.9882 8.86 18.0548 8.86C17.1348 8.86 16.3148 8.69333 15.5948 8.36C14.8748 8.02667 14.3082 7.56667 13.8948 6.98C13.4815 6.39333 13.2748 5.72667 13.2748 4.98C13.2748 4.20667 13.4815 3.53333 13.8948 2.96C14.3082 2.37333 14.8748 1.91333 15.5948 1.58C16.3148 1.24667 17.1348 1.08 18.0548 1.08ZM18.0548 3.02C17.5748 3.02 17.1482 3.1 16.7748 3.26C16.4015 3.40667 16.1015 3.62667 15.8748 3.92C15.6615 4.21333 15.5548 4.56667 15.5548 4.98C15.5548 5.38 15.6615 5.72667 15.8748 6.02C16.1015 6.3 16.4015 6.52 16.7748 6.68C17.1482 6.82667 17.5748 6.9 18.0548 6.9C18.5482 6.9 18.9815 6.82667 19.3548 6.68C19.7282 6.52 20.0215 6.3 20.2348 6.02C20.4615 5.72667 20.5748 5.38 20.5748 4.98C20.5748 4.56667 20.4615 4.21333 20.2348 3.92C20.0215 3.62667 19.7282 3.40667 19.3548 3.26C18.9815 3.1 18.5482 3.02 18.0548 3.02ZM16.9548 10.76H19.3348V18.14H16.9548V10.76ZM25.0148 0.319999H27.3948V18.7H25.0148V0.319999ZM12.3948 12.02L12.1148 10.08C13.2082 10.08 14.4148 10.0733 15.7348 10.06C17.0682 10.0333 18.4348 9.97333 19.8348 9.88C21.2482 9.78667 22.6082 9.64 23.9148 9.44L24.0548 11.18C22.7215 11.4467 21.3615 11.64 19.9748 11.76C18.5882 11.8667 17.2482 11.9333 15.9548 11.96C14.6615 11.9867 13.4748 12.0067 12.3948 12.02Z" fill="#999999"/>
</svg>
