<svg width="9" height="18" viewBox="0 0 9 18" fill="none" xmlns="http://www.w3.org/2000/svg">
<path d="M2.43486 1.07874L8.64684 8.62379C8.72058 8.71361 8.77268 8.81092 8.80316 8.91571C8.83413 9.0205 8.84961 9.13278 8.84961 9.25255C8.84961 9.37231 8.83413 9.48459 8.80316 9.58938C8.77268 9.69417 8.72058 9.79148 8.64684 9.8813L2.43486 17.4488C2.26282 17.6584 2.04777 17.7632 1.7897 17.7632C1.53164 17.7632 1.31044 17.6509 1.12611 17.4264C0.941775 17.2018 0.849609 16.9398 0.849609 16.6404C0.849609 16.341 0.941775 16.079 1.12611 15.8545L6.54546 9.25255L1.12611 2.65063C0.954064 2.44104 0.868042 2.18295 0.868042 1.87636C0.868042 1.56917 0.960208 1.3033 1.14454 1.07874C1.32887 0.854183 1.54393 0.741907 1.7897 0.741907C2.03548 0.741907 2.25053 0.854183 2.43486 1.07874Z" fill="#B2B2B2"/>
</svg>
