<svg width="29" height="34" viewBox="0 0 29 34" fill="none" xmlns="http://www.w3.org/2000/svg">
<path d="M27.6332 20.4574L24.6618 22.3459L23.1279 21.3722L25.1152 20.1128C25.5886 19.8228 24.6043 17.9781 24.1309 18.2694L21.1595 20.1579L16.6804 17.2903L21.1857 14.4308L24.1572 16.3193C24.6305 16.6093 25.5948 14.7645 25.1414 14.476L23.1542 13.2165L24.688 12.2429L27.6595 14.1314C28.1328 14.4213 29.0971 12.5765 28.6437 12.288L26.6565 11.0285L27.5458 10.4692C28.0954 10.1164 26.94 7.94076 26.3954 8.29357L25.5061 8.85287V6.32439C25.5061 5.74457 23.5564 5.74457 23.5564 6.32439V10.0754L22.0225 11.0491V8.52057C22.0225 7.94076 20.0728 7.94076 20.0728 8.52057V12.2524L15.5675 15.1119V9.41491L18.539 7.52641C19.0124 7.2365 18.0281 5.39176 17.5547 5.68304L15.5675 6.94249V4.99519L18.539 3.10669C19.0124 2.81679 18.0281 0.972047 17.5547 1.26332L15.5675 2.52278V1.38366C15.5675 0.679405 13.2581 0.679405 13.2581 1.38366V2.52278L11.2321 1.26332C10.7587 0.973414 9.79448 2.81815 10.2479 3.10669L13.2193 4.99519V6.92198L11.2321 5.66253C10.7587 5.37262 9.79448 7.21736 10.2479 7.5059L13.2193 9.3944V15.0872L8.73405 12.2538V8.50416C8.73405 7.92435 6.7843 7.92435 6.7843 8.50416V11.0108L5.25048 10.0371V6.2861C5.25048 5.70629 3.30073 5.70629 3.30073 6.2861V8.81458L2.41142 8.25528C1.86184 7.90247 0.707733 10.0987 1.26106 10.431L2.15037 10.9903L0.156907 12.2538C-0.316478 12.5437 0.667763 14.3885 1.14115 14.0972L4.11261 12.2087L5.64643 13.1823L3.62049 14.4691C3.1471 14.759 4.13134 16.6038 4.60473 16.3125L7.57619 14.424L12.0815 17.2834L7.57619 20.1169L4.60473 18.2516C4.13134 17.9617 3.16709 19.8064 3.62049 20.095L5.6077 21.3544L4.07389 22.3281L1.10243 20.4396C0.629043 20.1497 -0.335213 21.9944 0.118187 22.283L2.10541 23.5424L1.21609 24.1017C0.666514 24.4545 1.82187 26.6302 2.36645 26.2774L3.25577 25.7181V28.2466C3.25577 28.8264 5.20551 28.8264 5.20551 28.2466V24.4955L6.73933 23.5219V26.0504C6.73933 26.6302 8.68908 26.6302 8.68908 26.0504V22.3007L13.1944 19.4413V25.1615L10.2229 27.05C9.74951 27.3399 10.7338 29.1847 11.2071 28.8934L13.1944 27.6339V29.5607L10.2229 31.4492C9.74951 31.7391 10.7338 33.5839 11.2071 33.2926L13.1944 32.0331V33.1723C13.1944 33.8765 15.5038 33.8765 15.5038 33.1723V32.0331L17.491 33.2926C17.9644 33.5825 18.9287 31.7378 18.4753 31.4492L15.5038 29.5607V27.6339L17.491 28.8934C17.9644 29.1833 18.9287 27.3386 18.4753 27.05L15.5038 25.1615V19.4646L20.0091 22.324V26.0736C20.0091 26.6534 21.9588 26.6534 21.9588 26.0736V23.5451L23.4927 24.5188V28.2698C23.4927 28.8496 25.4424 28.8496 25.4424 28.2698V25.7413L26.3317 26.3006C26.8813 26.6534 28.0354 24.4573 27.4821 24.125L26.5928 23.5657L28.58 22.3062C29.0721 22.0122 28.1129 20.1661 27.6345 20.456L27.6332 20.4574Z" fill="#616161"/>
</svg>
