<svg width="30" height="39" viewBox="0 0 30 39" fill="none" xmlns="http://www.w3.org/2000/svg">
<path d="M0 22.5622C0 26.9177 1.55263 31.0948 4.31632 34.1746C7.08002 37.2544 10.8284 38.9847 14.7368 38.9847C14.7368 29.8611 8.13801 22.5622 0 22.5622ZM14.7368 8.87677C15.8225 8.87677 16.8637 9.35739 17.6314 10.2129C18.3991 11.0684 18.8304 12.2287 18.8304 13.4386C18.8304 14.6484 18.3991 15.8088 17.6314 16.6643C16.8637 17.5198 15.8225 18.0004 14.7368 18.0004C13.6512 18.0004 12.6099 17.5198 11.8423 16.6643C11.0746 15.8088 10.6433 14.6484 10.6433 13.4386C10.6433 12.2287 11.0746 11.0684 11.8423 10.2129C12.6099 9.35739 13.6512 8.87677 14.7368 8.87677ZM4.25731 17.5442C4.25731 18.7541 4.6886 19.9144 5.45629 20.7699C6.22398 21.6254 7.2652 22.106 8.35088 22.106C9.21871 22.106 10.0211 21.7958 10.6433 21.3031V21.6498C10.6433 22.8597 11.0746 24.02 11.8423 24.8755C12.6099 25.731 13.6512 26.2116 14.7368 26.2116C15.8225 26.2116 16.8637 25.731 17.6314 24.8755C18.3991 24.02 18.8304 22.8597 18.8304 21.6498V21.3031C19.4526 21.7958 20.255 22.106 21.1228 22.106C22.2085 22.106 23.2497 21.6254 24.0174 20.7699C24.7851 19.9144 25.2164 18.7541 25.2164 17.5442C25.2164 15.7195 24.2503 14.1685 22.8749 13.4386C24.2503 12.7087 25.2164 11.1394 25.2164 9.33295C25.2164 8.12309 24.7851 6.96277 24.0174 6.10727C23.2497 5.25177 22.2085 4.77115 21.1228 4.77115C20.255 4.77115 19.4526 5.0631 18.8304 5.57403V5.22733C18.8304 4.01746 18.3991 2.85715 17.6314 2.00165C16.8637 1.14614 15.8225 0.665527 14.7368 0.665527C13.6512 0.665527 12.6099 1.14614 11.8423 2.00165C11.0746 2.85715 10.6433 4.01746 10.6433 5.22733V5.57403C10.0211 5.0631 9.21871 4.77115 8.35088 4.77115C7.2652 4.77115 6.22398 5.25177 5.45629 6.10727C4.6886 6.96277 4.25731 8.12309 4.25731 9.33295C4.25731 11.1394 5.22339 12.7087 6.59883 13.4386C5.22339 14.1685 4.25731 15.7195 4.25731 17.5442ZM14.7368 38.9847C18.6453 38.9847 22.3937 37.2544 25.1574 34.1746C27.9211 31.0948 29.4737 26.9177 29.4737 22.5622C21.2866 22.5622 14.7368 29.8611 14.7368 38.9847Z" fill="#616161"/>
</svg>
