<svg width="14" height="14" viewBox="0 0 14 14" fill="none" xmlns="http://www.w3.org/2000/svg">
<path d="M3.00562 10.922L6.3217 10.9108L13.5595 3.74206C13.8436 3.45801 13.9999 3.08079 13.9999 2.67953C13.9999 2.27826 13.8436 1.90104 13.5595 1.617L12.3678 0.425219C11.7997 -0.142867 10.8085 -0.139861 10.2449 0.422964L3.00562 7.59316V10.922ZM11.3052 1.48775L12.4993 2.67727L11.2992 3.86604L10.1074 2.67502L11.3052 1.48775ZM4.50849 8.21986L9.03964 3.73154L10.2314 4.92331L5.70102 9.41014L4.50849 9.41389V8.21986Z" fill="#929292"/>
<path d="M1.50287 13.918H12.023C12.8518 13.918 13.5258 13.244 13.5258 12.4151V5.90168L12.023 7.40455V12.4151H3.87591C3.85637 12.4151 3.83608 12.4226 3.81654 12.4226C3.79175 12.4226 3.76695 12.4159 3.7414 12.4151H1.50287V1.89502H6.64795L8.15082 0.392151H1.50287C0.674038 0.392151 0 1.06619 0 1.89502V12.4151C0 13.244 0.674038 13.918 1.50287 13.918Z" fill="#929292"/>
</svg>
