<svg width="28" height="36" viewBox="0 0 28 36" fill="none" xmlns="http://www.w3.org/2000/svg">
<path d="M27.7169 26.3341C26.8737 24.6568 25.6209 19.9261 25.6209 13.773C25.6209 10.2104 24.3967 6.79383 22.2177 4.27475C20.0386 1.75566 17.0832 0.340454 14.0015 0.340454C10.9198 0.340454 7.96438 1.75566 5.78531 4.27475C3.60624 6.79383 2.38206 10.2104 2.38206 13.773C2.38206 19.9278 1.12775 24.6568 0.284599 26.3341C0.0996045 26.7003 0.00144167 27.1165 1.57591e-05 27.5405C-0.00141015 27.9646 0.0939516 28.3816 0.276478 28.7495C0.459004 29.1174 0.722237 29.4231 1.03961 29.6358C1.35699 29.8484 1.71728 29.9606 2.08412 29.9609H8.41224C8.62933 31.4926 9.31032 32.8853 10.3336 33.8902C11.3569 34.8951 12.6558 35.4468 13.9985 35.4468C15.3412 35.4468 16.6401 34.8951 17.6634 33.8902C18.6867 32.8853 19.3677 31.4926 19.5848 29.9609H25.9189C26.2854 29.96 26.6454 29.8474 26.9623 29.6345C27.2793 29.4215 27.5421 29.1158 27.7243 28.748C27.9064 28.3803 28.0015 27.9635 28 27.5397C27.9984 27.1159 27.9003 26.7001 27.7154 26.3341H27.7169ZM14.0015 33.4051C13.1299 33.4048 12.2839 33.0646 11.6002 32.4396C10.9166 31.8146 10.4352 30.9413 10.2341 29.9609H17.7689C17.5677 30.9413 17.0864 31.8146 16.4028 32.4396C15.7191 33.0646 14.8731 33.4048 14.0015 33.4051ZM26.1736 27.7221C26.1491 27.7749 26.1125 27.8188 26.0678 27.8492C26.0232 27.8796 25.9721 27.8952 25.9203 27.8943H2.08412C2.03232 27.8952 1.98131 27.8796 1.93666 27.8492C1.892 27.8188 1.85541 27.7749 1.83088 27.7221C1.80473 27.6698 1.79096 27.6104 1.79096 27.5499C1.79096 27.4895 1.80473 27.4301 1.83088 27.3777C2.95856 25.1389 4.16966 19.9192 4.16966 13.773C4.16966 10.7585 5.20551 7.86755 7.04934 5.73601C8.89316 3.60448 11.3939 2.407 14.0015 2.407C16.6091 2.407 19.1098 3.60448 20.9536 5.73601C22.7975 7.86755 23.8333 10.7585 23.8333 13.773C23.8333 19.9175 25.0459 25.1303 26.1736 27.3777C26.1997 27.4301 26.2135 27.4895 26.2135 27.5499C26.2135 27.6104 26.1997 27.6698 26.1736 27.7221Z" fill="#B592FF"/>
</svg>
