<svg width="25" height="25" viewBox="0 0 25 25" fill="none" xmlns="http://www.w3.org/2000/svg">
<path d="M21.2977 11.6741C21.381 12.1411 21.4286 12.6082 21.4286 13.098C21.4286 18.1216 17.1548 22.2111 11.9048 22.2111C6.65479 22.2111 2.38096 18.1216 2.38096 13.098C2.38096 13.041 2.39287 12.9841 2.38096 12.9385C5.47621 11.8222 7.96431 9.53249 9.21432 6.6163C13.2381 11.3323 18.7024 10.8653 19.9167 10.7286L18.8572 8.53005C18.7024 8.54144 13.3572 8.96292 10.3096 4.13298C11.5119 3.95071 12.3453 3.9621 13.3929 4.12158C16.3929 2.81158 15.6905 3.10775 16.6786 2.68627C15.1794 2.03517 13.5512 1.70103 11.9048 1.70661C5.33335 1.70661 0 6.80995 0 13.098C0 19.386 5.33335 24.4894 11.9048 24.4894C18.4763 24.4894 23.8096 19.386 23.8096 13.098C23.8096 11.469 23.4525 9.93119 22.8096 8.53005L21.2977 11.6741ZM7.23812 5.1582C6.48694 7.30041 4.93524 9.10161 2.88096 10.216C3.63215 8.07376 5.18384 6.27256 7.23812 5.1582Z" fill="#E3A6A1"/>
<path d="M15.4774 15.6628C16.2992 15.6628 16.9655 15.0253 16.9655 14.2389C16.9655 13.4525 16.2992 12.8149 15.4774 12.8149C14.6555 12.8149 13.9893 13.4525 13.9893 14.2389C13.9893 15.0253 14.6555 15.6628 15.4774 15.6628Z" fill="#E3A6A1"/>
<path d="M8.3338 15.6628C9.15566 15.6628 9.8219 15.0253 9.8219 14.2389C9.8219 13.4525 9.15566 12.8149 8.3338 12.8149C7.51195 12.8149 6.8457 13.4525 6.8457 14.2389C6.8457 15.0253 7.51195 15.6628 8.3338 15.6628Z" fill="#E3A6A1"/>
<path d="M25.0004 4.55534L22.1432 3.30229L20.8337 0.568359L19.5241 3.30229L16.667 4.55534L19.5241 5.80839L20.8337 8.54233L22.1432 5.80839L25.0004 4.55534Z" fill="#E3A6A1"/>
</svg>
