<svg width="20" height="20" viewBox="0 0 20 20" fill="none" xmlns="http://www.w3.org/2000/svg">
<path d="M16.0675 15.1829C16.1256 15.241 16.1717 15.3099 16.2031 15.3858C16.2345 15.4617 16.2507 15.543 16.2507 15.6251C16.2507 15.7072 16.2345 15.7885 16.2031 15.8644C16.1717 15.9403 16.1256 16.0092 16.0675 16.0673C16.0095 16.1254 15.9405 16.1714 15.8647 16.2028C15.7888 16.2343 15.7075 16.2505 15.6253 16.2505C15.5432 16.2505 15.4619 16.2343 15.386 16.2028C15.3102 16.1714 15.2412 16.1254 15.1832 16.0673L10.0003 10.8837L4.81754 16.0673C4.70026 16.1846 4.5412 16.2505 4.37535 16.2505C4.2095 16.2505 4.05044 16.1846 3.93316 16.0673C3.81588 15.95 3.75 15.791 3.75 15.6251C3.75 15.4593 3.81588 15.3002 3.93316 15.1829L9.11676 10.0001L3.93316 4.81729C3.81588 4.70002 3.75 4.54096 3.75 4.3751C3.75 4.20925 3.81588 4.05019 3.93316 3.93292C4.05044 3.81564 4.2095 3.74976 4.37535 3.74976C4.5412 3.74976 4.70026 3.81564 4.81754 3.93292L10.0003 9.11651L15.1832 3.93292C15.3004 3.81564 15.4595 3.74976 15.6253 3.74976C15.7912 3.74976 15.9503 3.81564 16.0675 3.93292C16.1848 4.05019 16.2507 4.20925 16.2507 4.3751C16.2507 4.54096 16.1848 4.70002 16.0675 4.81729L10.8839 10.0001L16.0675 15.1829Z" fill="#B4B4B4"/>
</svg>
