<svg width="30" height="62" viewBox="0 0 30 62" fill="none" xmlns="http://www.w3.org/2000/svg">
<path d="M5.4 46.28C4.62667 46.28 3.94 46.1867 3.34 46C2.74 45.8133 2.20667 45.5667 1.74 45.26C1.27333 44.9533 0.873333 44.6067 0.54 44.22L1.8 42.56C2.24 42.9867 2.73333 43.3533 3.28 43.66C3.82667 43.9667 4.46 44.12 5.18 44.12C5.71333 44.12 6.18 44.0333 6.58 43.86C6.98 43.6867 7.28667 43.4333 7.5 43.1C7.72667 42.7533 7.84 42.3467 7.84 41.88C7.84 41.36 7.71333 40.9133 7.46 40.54C7.22 40.1533 6.79333 39.86 6.18 39.66C5.56667 39.4467 4.71333 39.34 3.62 39.34V37.44C4.56667 37.44 5.30667 37.34 5.84 37.14C6.38667 36.9267 6.77333 36.64 7 36.28C7.24 35.9067 7.36 35.4867 7.36 35.02C7.36 34.4067 7.17333 33.9267 6.8 33.58C6.42667 33.22 5.90667 33.04 5.24 33.04C4.69333 33.04 4.18667 33.1667 3.72 33.42C3.25333 33.66 2.8 33.98 2.36 34.38L1.02 32.76C1.63333 32.2133 2.29333 31.78 3 31.46C3.70667 31.1267 4.48667 30.96 5.34 30.96C6.26 30.96 7.06667 31.1133 7.76 31.42C8.46667 31.7133 9.01333 32.1467 9.4 32.72C9.8 33.2933 10 34 10 34.84C10 35.6533 9.77333 36.3533 9.32 36.94C8.88 37.5133 8.27333 37.9467 7.5 38.24V38.34C8.06 38.4867 8.56667 38.7267 9.02 39.06C9.47333 39.38 9.82667 39.7933 10.08 40.3C10.3467 40.7933 10.48 41.3667 10.48 42.02C10.48 42.9133 10.2467 43.68 9.78 44.32C9.32667 44.9467 8.71333 45.4333 7.94 45.78C7.18 46.1133 6.33333 46.28 5.4 46.28ZM18.4416 30.08C19.3749 30.08 20.2016 30.2467 20.9216 30.58C21.6416 30.9133 22.2082 31.3733 22.6216 31.96C23.0349 32.5333 23.2416 33.2067 23.2416 33.98C23.2416 34.7267 23.0349 35.3933 22.6216 35.98C22.2082 36.5667 21.6416 37.0267 20.9216 37.36C20.2016 37.6933 19.3749 37.86 18.4416 37.86C17.5216 37.86 16.7016 37.6933 15.9816 37.36C15.2616 37.0267 14.6949 36.5667 14.2816 35.98C13.8682 35.3933 13.6616 34.7267 13.6616 33.98C13.6616 33.2067 13.8682 32.5333 14.2816 31.96C14.6949 31.3733 15.2616 30.9133 15.9816 30.58C16.7016 30.2467 17.5216 30.08 18.4416 30.08ZM18.4416 32.02C17.9616 32.02 17.5349 32.1 17.1616 32.26C16.7882 32.4067 16.4882 32.6267 16.2616 32.92C16.0482 33.2133 15.9416 33.5667 15.9416 33.98C15.9416 34.38 16.0482 34.7267 16.2616 35.02C16.4882 35.3 16.7882 35.52 17.1616 35.68C17.5349 35.8267 17.9616 35.9 18.4416 35.9C18.9349 35.9 19.3682 35.8267 19.7416 35.68C20.1149 35.52 20.4082 35.3 20.6216 35.02C20.8482 34.7267 20.9616 34.38 20.9616 33.98C20.9616 33.5667 20.8482 33.2133 20.6216 32.92C20.4082 32.6267 20.1149 32.4067 19.7416 32.26C19.3682 32.1 18.9349 32.02 18.4416 32.02ZM17.3416 39.76H19.7216V47.14H17.3416V39.76ZM25.4016 29.32H27.7816V47.7H25.4016V29.32ZM12.7816 41.02L12.5016 39.08C13.5949 39.08 14.8016 39.0733 16.1216 39.06C17.4549 39.0333 18.8216 38.9733 20.2216 38.88C21.6349 38.7867 22.9949 38.64 24.3016 38.44L24.4416 40.18C23.1082 40.4467 21.7482 40.64 20.3616 40.76C18.9749 40.8667 17.6349 40.9333 16.3416 40.96C15.0482 40.9867 13.8616 41.0067 12.7816 41.02Z" fill="#999999"/>
<path d="M24.275 18.9H6.725C6.35375 18.9 6.05 19.2038 6.05 19.575V20.925C6.05 21.2963 6.35375 21.6 6.725 21.6H24.275C24.6463 21.6 24.95 21.2963 24.95 20.925V19.575C24.95 19.2038 24.6463 18.9 24.275 18.9ZM26.975 5.4C25.857 5.4 24.95 6.30703 24.95 7.425C24.95 7.72453 25.0175 8.00297 25.1356 8.26031L22.0813 10.0913C21.4316 10.4794 20.592 10.26 20.2166 9.60188L16.7783 3.58594C17.2297 3.21469 17.525 2.65781 17.525 2.025C17.525 0.907031 16.618 0 15.5 0C14.382 0 13.475 0.907031 13.475 2.025C13.475 2.65781 13.7703 3.21469 14.2217 3.58594L10.7834 9.60188C10.408 10.26 9.56422 10.4794 8.91875 10.0913L5.86859 8.26031C5.9825 8.00719 6.05422 7.72453 6.05422 7.425C6.05422 6.30703 5.14719 5.4 4.02922 5.4C2.91125 5.4 2 6.30703 2 7.425C2 8.54297 2.90703 9.45 4.025 9.45C4.13469 9.45 4.24438 9.43313 4.34984 9.41625L7.4 17.55H23.6L26.6502 9.41625C26.7556 9.43313 26.8653 9.45 26.975 9.45C28.093 9.45 29 8.54297 29 7.425C29 6.30703 28.093 5.4 26.975 5.4Z" fill="#E29A73"/>
</svg>
