<svg width="17" height="33" viewBox="0 0 17 33" fill="none" xmlns="http://www.w3.org/2000/svg">
<path d="M16.5547 15.3993L2.16677 0.390333C1.9267 0.139774 1.60775 0 1.27608 0C0.944403 0 0.625458 0.139774 0.385387 0.390333L0.369896 0.407292C0.253113 0.528758 0.16012 0.674964 0.0965748 0.837019C0.0330296 0.999073 0.000259399 1.17359 0.000259399 1.34994C0.000259399 1.5263 0.0330296 1.70081 0.0965748 1.86287C0.16012 2.02492 0.253113 2.17113 0.369896 2.2926L13.9187 16.4253L0.369896 30.5524C0.253113 30.6738 0.16012 30.82 0.0965748 30.9821C0.0330296 31.1442 0.000259399 31.3187 0.000259399 31.495C0.000259399 31.6714 0.0330296 31.8459 0.0965748 32.008C0.16012 32.17 0.253113 32.3162 0.369896 32.4377L0.385387 32.4546C0.625458 32.7052 0.944403 32.845 1.27608 32.845C1.60775 32.845 1.9267 32.7052 2.16677 32.4546L16.5547 17.4457C16.6812 17.3137 16.7819 17.155 16.8508 16.9791C16.9196 16.8032 16.9551 16.6138 16.9551 16.4225C16.9551 16.2311 16.9196 16.0418 16.8508 15.8659C16.7819 15.69 16.6812 15.5313 16.5547 15.3993Z" fill="#D9D3C3"/>
</svg>
