<svg width="19" height="19" viewBox="0 0 19 19" fill="none" xmlns="http://www.w3.org/2000/svg">
<path d="M9.49979 13.6958L6.57063 15.9323C6.42549 16.0511 6.26716 16.107 6.09563 16.1001C5.9241 16.0938 5.77236 16.0445 5.64042 15.9521C5.50848 15.8597 5.40635 15.7344 5.33405 15.5761C5.26121 15.4177 5.25778 15.2462 5.32375 15.0615L6.45188 11.4L3.58209 9.36147C3.42375 9.25592 3.3248 9.11738 3.28521 8.94585C3.24563 8.77432 3.25223 8.61599 3.305 8.47085C3.35778 8.32571 3.45014 8.19693 3.58209 8.08452C3.71403 7.97263 3.87236 7.91668 4.05709 7.91668H7.5998L8.74771 4.11668C8.81368 3.93196 8.91607 3.78999 9.05488 3.69077C9.19316 3.59207 9.34146 3.54272 9.49979 3.54272C9.65813 3.54272 9.80643 3.59207 9.94471 3.69077C10.0835 3.78999 10.1859 3.93196 10.2519 4.11668L11.3998 7.91668H14.9425C15.1272 7.91668 15.2856 7.97263 15.4175 8.08452C15.5494 8.19693 15.6418 8.32571 15.6946 8.47085C15.7474 8.61599 15.754 8.77432 15.7144 8.94585C15.6748 9.11738 15.5758 9.25592 15.4175 9.36147L12.5477 11.4L13.6758 15.0615C13.7418 15.2462 13.7386 15.4177 13.6663 15.5761C13.5935 15.7344 13.4911 15.8597 13.3592 15.9521C13.2272 16.0445 13.0755 16.0938 12.904 16.1001C12.7324 16.107 12.5741 16.0511 12.429 15.9323L9.49979 13.6958Z" fill="#FFCE4F"/>
</svg>
