<svg width="29" height="15" viewBox="0 0 29 15" fill="none" xmlns="http://www.w3.org/2000/svg">
<path d="M28.1487 13.0659L15.1022 0.348374C14.8731 0.125009 14.5657 0 14.2457 0C13.9257 0 13.6184 0.125009 13.3892 0.348374L0.337867 13.0659C0.231004 13.17 0.146067 13.2944 0.0880715 13.4318C0.0300758 13.5692 0.000197827 13.7169 0.000197827 13.866C0.000197827 14.0152 0.0300758 14.1628 0.0880715 14.3002C0.146067 14.4376 0.231004 14.562 0.337867 14.6661C0.557011 14.8801 0.851211 15 1.15757 15C1.46392 15 1.75812 14.8801 1.97726 14.6661L14.2457 2.70684L26.5117 14.6661C26.7307 14.8794 27.0244 14.9988 27.3302 14.9988C27.6359 14.9988 27.9296 14.8794 28.1487 14.6661C28.2555 14.562 28.3405 14.4376 28.3985 14.3002C28.4564 14.1628 28.4863 14.0152 28.4863 13.866C28.4863 13.7169 28.4564 13.5692 28.3985 13.4318C28.3405 13.2944 28.2555 13.17 28.1487 13.0659Z" fill="#BC5F6A"/>
</svg>
