<svg width="37" height="33" viewBox="0 0 37 33" fill="none" xmlns="http://www.w3.org/2000/svg">
<path d="M29.0356 8.31413e-08H0.963645C0.708 0.000222129 0.462895 0.111563 0.282199 0.309553C0.101502 0.507542 -8.04491e-08 0.775979 0 1.05587V31.7891C0.000101173 32.069 0.101636 32.3373 0.282311 32.5353C0.462985 32.7333 0.708031 32.8446 0.963645 32.845H29.0356C29.1623 32.845 29.2877 32.8178 29.4047 32.7647C29.5217 32.7117 29.6281 32.6339 29.7176 32.5358C29.8072 32.4378 29.8782 32.3214 29.9267 32.1932C29.9751 32.0651 30.0001 31.9278 30 31.7891V1.05587C30.0001 0.917194 29.9751 0.779868 29.9267 0.65174C29.8782 0.523611 29.8072 0.407191 29.7176 0.309134C29.6281 0.211076 29.5217 0.133304 29.4047 0.0802612C29.2877 0.0272184 29.1623 -5.49571e-05 29.0356 8.31413e-08ZM3.83354 4.19625H26.1672V28.6479H3.83354V4.19625ZM36.6036 22.2716H35.5011V19.0312C35.5011 18.9984 35.4953 18.966 35.4839 18.9357C35.4724 18.9054 35.4557 18.8779 35.4345 18.8547C35.4134 18.8315 35.3883 18.8131 35.3607 18.8005C35.333 18.788 35.3034 18.7815 35.2735 18.7815H33.2333C33.2034 18.7815 33.1738 18.788 33.1461 18.8005C33.1185 18.8131 33.0934 18.8315 33.0722 18.8547C33.0511 18.8779 33.0343 18.9054 33.0229 18.9357C33.0115 18.966 33.0057 18.9984 33.0057 19.0312V22.2712H31.9028C31.8611 22.2716 31.8203 22.2845 31.7847 22.3085C31.7492 22.3324 31.7204 22.3666 31.7013 22.4072C31.6822 22.4478 31.6737 22.4934 31.6766 22.539C31.6794 22.5846 31.6936 22.6284 31.7177 22.6658L34.0757 26.2744C34.0967 26.3066 34.1244 26.3328 34.1566 26.3508C34.1887 26.3689 34.2243 26.3783 34.2605 26.3783C34.2967 26.3782 34.3328 26.3687 34.365 26.3505C34.3972 26.3323 34.425 26.3059 34.446 26.2736L36.7891 22.6653C36.8134 22.6281 36.8278 22.5842 36.8307 22.5385C36.8337 22.4929 36.8251 22.4472 36.806 22.4066C36.7868 22.3659 36.7578 22.3318 36.7221 22.308C36.6864 22.2842 36.6454 22.2716 36.6036 22.2716ZM31.9181 10.5733H33.0206V13.8138C33.0206 13.9516 33.1228 14.063 33.2486 14.0634L35.2888 14.063C35.3187 14.0631 35.3483 14.0567 35.3759 14.0442C35.4036 14.0317 35.4287 14.0133 35.4498 13.9901C35.471 13.967 35.4877 13.9395 35.4992 13.9092C35.5106 13.879 35.5164 13.8466 35.5164 13.8138V10.5733H36.6193C36.6611 10.5733 36.7021 10.5607 36.7378 10.5369C36.7735 10.513 36.8025 10.4788 36.8217 10.4381C36.8408 10.3974 36.8493 10.3517 36.8463 10.306C36.8432 10.2603 36.8288 10.2165 36.8044 10.1792L34.4464 6.57101C34.4254 6.5387 34.3977 6.51235 34.3656 6.49414C34.3335 6.47593 34.2978 6.46638 34.2616 6.4663C34.2253 6.46655 34.1891 6.47625 34.1569 6.4946C34.1246 6.51295 34.0968 6.53942 34.0757 6.57184L31.733 10.1796C31.7089 10.2169 31.6946 10.2607 31.6917 10.3063C31.6888 10.3518 31.6973 10.3974 31.7164 10.438C31.7355 10.4786 31.7644 10.5127 31.8 10.5365C31.8355 10.5604 31.8764 10.5731 31.9181 10.5733Z" fill="#616161"/>
<path d="M10.0069 10.9558C11.0537 10.9558 11.9024 10.0266 11.9024 8.88047C11.9024 7.73432 11.0537 6.80518 10.0069 6.80518C8.95999 6.80518 8.11133 7.73432 8.11133 8.88047C8.11133 10.0266 8.95999 10.9558 10.0069 10.9558Z" fill="#616161"/>
<path d="M13.5941 11.5135V11.5034H6.80303V11.5105C6.56748 11.5105 6.3415 11.6125 6.17437 11.7942C6.00724 11.976 5.91254 12.2227 5.91092 12.4805H5.91016V18.3609H5.91895C5.91895 18.5923 6.00291 18.8142 6.15235 18.9778C6.30179 19.1414 6.50447 19.2333 6.71581 19.2333C6.92715 19.2333 7.12983 19.1414 7.27927 18.9778C7.42871 18.8142 7.51266 18.5923 7.51266 18.3609H7.51457V14.2555H7.51687C7.51924 14.1839 7.54686 14.1161 7.59394 14.0662C7.64101 14.0164 7.70388 13.9885 7.76935 13.9883C7.9063 13.9883 8.01648 14.1069 8.02222 14.2555H8.02451V25.0199C8.02459 25.1539 8.04878 25.2866 8.0957 25.4104C8.14262 25.5342 8.21135 25.6467 8.29798 25.7414C8.3846 25.8361 8.48741 25.9112 8.60055 25.9625C8.71369 26.0137 8.83493 26.04 8.95736 26.0399C9.07979 26.0398 9.20101 26.0134 9.31409 25.962C9.42717 25.9106 9.5299 25.8354 9.61641 25.7405C9.70293 25.6457 9.77154 25.5331 9.81832 25.4093C9.8651 25.2854 9.88914 25.1526 9.88906 25.0186V19.5985H9.89595C9.89595 19.5236 9.92316 19.4517 9.97158 19.3986C10.02 19.3456 10.0857 19.3158 10.1542 19.3158C10.2227 19.3158 10.2883 19.3456 10.3368 19.3986C10.3852 19.4517 10.4124 19.5236 10.4124 19.5985H10.4189V25.0186C10.4258 25.2842 10.5271 25.5365 10.7012 25.7217C10.8753 25.9069 11.1084 26.0105 11.3512 26.0105C11.5939 26.0105 11.8271 25.9069 12.0011 25.7217C12.1752 25.5365 12.2765 25.2842 12.2834 25.0186V14.256C12.2821 14.2184 12.2877 14.181 12.2999 14.1459C12.3121 14.1109 12.3307 14.0788 12.3544 14.0518C12.3782 14.0247 12.4067 14.0032 12.4383 13.9885C12.4698 13.9738 12.5037 13.9662 12.538 13.9662C12.5723 13.9662 12.6063 13.9738 12.6378 13.9885C12.6694 14.0032 12.6979 14.0247 12.7216 14.0518C12.7454 14.0788 12.764 14.1109 12.7762 14.1459C12.7884 14.181 12.794 14.2184 12.7926 14.256V18.3613H12.8014C12.8014 18.5928 12.8854 18.8147 13.0349 18.9784C13.1843 19.142 13.3871 19.234 13.5985 19.234C13.8099 19.234 14.0126 19.142 14.1621 18.9784C14.3115 18.8147 14.3955 18.5928 14.3955 18.3613H14.397V12.481C14.3962 12.2395 14.3137 12.007 14.1654 11.8283C14.0171 11.6496 13.8135 11.5374 13.5941 11.5135Z" fill="#616161"/>
<path d="M19.6963 10.9558C20.7432 10.9558 21.5919 10.0266 21.5919 8.88047C21.5919 7.73432 20.7432 6.80518 19.6963 6.80518C18.6494 6.80518 17.8008 7.73432 17.8008 8.88047C17.8008 10.0266 18.6494 10.9558 19.6963 10.9558Z" fill="#616161"/>
<path d="M23.2855 11.5135V11.5034H16.4944V11.5105C16.2589 11.5105 16.0329 11.6125 15.8658 11.7942C15.6986 11.976 15.6039 12.2227 15.6023 12.4805H15.6016V18.3609H15.6104C15.6104 18.5923 15.6943 18.8142 15.8438 18.9778C15.9932 19.1414 16.1959 19.2333 16.4072 19.2333C16.6186 19.2333 16.8212 19.1414 16.9707 18.9778C17.1201 18.8142 17.2041 18.5923 17.2041 18.3609H17.206V14.2555H17.2083C17.2106 14.1839 17.2383 14.1161 17.2853 14.0662C17.3324 14.0164 17.3953 13.9885 17.4608 13.9883C17.5977 13.9883 17.7079 14.1069 17.7136 14.2555H17.7159V25.0199C17.7161 25.2906 17.8144 25.5501 17.9894 25.7414C18.076 25.8361 18.1788 25.9112 18.292 25.9625C18.4051 26.0137 18.5263 26.04 18.6488 26.0399C18.7712 26.0398 18.8924 26.0134 19.0055 25.962C19.1186 25.9106 19.2213 25.8354 19.3078 25.7405C19.3943 25.6457 19.4629 25.5331 19.5097 25.4093C19.5565 25.2854 19.5805 25.1526 19.5805 25.0186V19.5985H19.5874C19.5874 19.5236 19.6146 19.4517 19.663 19.3986C19.7114 19.3456 19.7771 19.3158 19.8456 19.3158C19.9141 19.3158 19.9797 19.3456 20.0282 19.3986C20.0766 19.4517 20.1038 19.5236 20.1038 19.5985H20.1103V25.0186C20.1173 25.2842 20.2185 25.5365 20.3926 25.7217C20.5667 25.9069 20.7998 26.0105 21.0426 26.0105C21.2853 26.0105 21.5185 25.9069 21.6926 25.7217C21.8666 25.5365 21.9679 25.2842 21.9749 25.0186V14.256C21.9735 14.2184 21.9791 14.181 21.9913 14.1459C22.0035 14.1109 22.0221 14.0788 22.0458 14.0518C22.0696 14.0247 22.0981 14.0032 22.1297 13.9885C22.1612 13.9738 22.1952 13.9662 22.2294 13.9662C22.2637 13.9662 22.2977 13.9738 22.3292 13.9885C22.3608 14.0032 22.3893 14.0247 22.4131 14.0518C22.4368 14.0788 22.4554 14.1109 22.4676 14.1459C22.4798 14.181 22.4854 14.2184 22.484 14.256V18.3613H22.4928C22.4928 18.5928 22.5768 18.8147 22.7263 18.9784C22.8758 19.142 23.0785 19.234 23.2899 19.234C23.5013 19.234 23.704 19.142 23.8535 18.9784C24.0029 18.8147 24.0869 18.5928 24.0869 18.3613H24.0884V12.481C24.0876 12.2395 24.005 12.007 23.8567 11.8284C23.7084 11.6497 23.5049 11.5375 23.2855 11.5135Z" fill="#616161"/>
</svg>
