<svg width="20" height="25" viewBox="0 0 20 25" fill="none" xmlns="http://www.w3.org/2000/svg">
<path d="M13.7495 22.8825C13.7995 23.2812 13.6745 23.7064 13.387 23.9854C13.2714 24.1086 13.1341 24.2063 12.9829 24.273C12.8317 24.3397 12.6696 24.374 12.5059 24.374C12.3422 24.374 12.1801 24.3397 12.0289 24.273C11.8777 24.2063 11.7404 24.1086 11.6248 23.9854L6.61297 18.6571C6.47666 18.5154 6.37301 18.3422 6.31013 18.1508C6.24726 17.9595 6.22685 17.7553 6.25052 17.5542V10.751L0.263848 2.60571C0.0608864 2.32871 -0.030694 1.97755 0.00911818 1.62898C0.0489303 1.28041 0.216898 0.962765 0.476319 0.745451C0.713786 0.559426 0.976249 0.453125 1.25121 0.453125H18.7488C19.0237 0.453125 19.2862 0.559426 19.5237 0.745451C19.7831 0.962765 19.9511 1.28041 19.9909 1.62898C20.0307 1.97755 19.9391 2.32871 19.7362 2.60571L13.7495 10.751V22.8825ZM3.80086 3.11064L8.75017 9.83415V17.1689L11.2498 19.8264V9.82086L16.1991 3.11064H3.80086Z" fill="#E3A6A1"/>
</svg>
