<svg width="20" height="24" viewBox="0 0 20 24" fill="none" xmlns="http://www.w3.org/2000/svg">
<path d="M10 0L0 4.35091V10.8773C0 16.9142 4.26667 22.5595 10 23.93C15.7333 22.5595 20 16.9142 20 10.8773V4.35091L10 0ZM10 4.24214C10.6593 4.24214 11.3037 4.43352 11.8519 4.79208C12.4001 5.15064 12.8273 5.66028 13.0796 6.25655C13.3319 6.85282 13.3979 7.50894 13.2693 8.14193C13.1407 8.77493 12.8232 9.35637 12.357 9.81274C11.8908 10.2691 11.2969 10.5799 10.6503 10.7058C10.0037 10.8317 9.33348 10.7671 8.72439 10.5201C8.1153 10.2731 7.59471 9.85487 7.22844 9.31824C6.86216 8.78162 6.66667 8.15071 6.66667 7.50532C6.66667 6.63987 7.01786 5.80987 7.64298 5.1979C8.2681 4.58594 9.11595 4.24214 10 4.24214ZM10 12.8352C12.2222 12.8352 16.6667 14.0208 16.6667 16.1854C15.9369 17.2624 14.9463 18.1458 13.783 18.757C12.6198 19.3681 11.3202 19.6879 10 19.6879C8.67984 19.6879 7.3802 19.3681 6.21697 18.757C5.05374 18.1458 4.06308 17.2624 3.33333 16.1854C3.33333 14.0208 7.77778 12.8352 10 12.8352Z" fill="#E3A6A1"/>
</svg>
