<svg width="35" height="39" viewBox="0 0 35 39" fill="none" xmlns="http://www.w3.org/2000/svg">
<path d="M17.4997 31.0016C17.8865 31.0016 18.2574 31.1698 18.5309 31.4692C18.8044 31.7687 18.958 32.1748 18.958 32.5982V34.1949C18.958 34.6183 18.8044 35.0244 18.5309 35.3239C18.2574 35.6233 17.8865 35.7915 17.4997 35.7915C17.1129 35.7915 16.742 35.6233 16.4685 35.3239C16.195 35.0244 16.0414 34.6183 16.0414 34.1949V32.5982C16.0414 32.1748 16.195 31.7687 16.4685 31.4692C16.742 31.1698 17.1129 31.0016 17.4997 31.0016ZM26.7805 27.7285L27.8116 28.8573C28.0772 29.1585 28.2242 29.5618 28.2209 29.9804C28.2176 30.399 28.0642 30.7995 27.7938 31.0955C27.5234 31.3915 27.1576 31.5595 26.7753 31.5631C26.3929 31.5667 26.0245 31.4058 25.7495 31.115L24.7184 29.9862C24.4528 29.685 24.3058 29.2817 24.3091 28.8631C24.3124 28.4444 24.4658 28.044 24.7362 27.748C25.0066 27.4519 25.3724 27.284 25.7547 27.2804C26.1371 27.2767 26.5055 27.4377 26.7805 27.7285ZM8.21885 27.7285C8.48129 27.4422 8.83345 27.2759 9.20379 27.2635C9.57413 27.2512 9.93489 27.3936 10.2128 27.6619C10.4907 27.9301 10.6649 28.3042 10.7001 28.708C10.7352 29.1118 10.6286 29.5152 10.402 29.8361L10.2809 29.9862L9.2499 31.115C8.98746 31.4013 8.6353 31.5676 8.26496 31.58C7.89462 31.5923 7.53385 31.4499 7.25595 31.1816C6.97804 30.9133 6.80382 30.5393 6.76869 30.1355C6.73355 29.7317 6.84013 29.3283 7.06677 29.0074L7.18781 28.8573L8.21885 27.7285ZM17.4997 10.2454C19.8203 10.2454 22.0459 11.2547 23.6869 13.0513C25.3278 14.8478 26.2497 17.2845 26.2497 19.8252C26.2497 22.3659 25.3278 24.8026 23.6869 26.5991C22.0459 28.3957 19.8203 29.405 17.4997 29.405C15.179 29.405 12.9534 28.3957 11.3125 26.5991C9.67156 24.8026 8.74969 22.3659 8.74969 19.8252C8.74969 17.2845 9.67156 14.8478 11.3125 13.0513C12.9534 11.2547 15.179 10.2454 17.4997 10.2454ZM5.83302 18.2286C6.20472 18.229 6.56223 18.3848 6.83252 18.6642C7.1028 18.9436 7.26545 19.3254 7.28723 19.7316C7.30901 20.1379 7.18829 20.5379 6.94972 20.85C6.71115 21.162 6.37274 21.3626 6.00364 21.4106L5.83302 21.4218H4.37469C4.00299 21.4214 3.64547 21.2655 3.37519 20.9862C3.10491 20.7068 2.94226 20.325 2.92048 19.9188C2.89869 19.5125 3.01942 19.1125 3.25799 18.8004C3.49656 18.4884 3.83496 18.2878 4.20406 18.2397L4.37469 18.2286H5.83302ZM30.6247 18.2286C31.0115 18.2286 31.3824 18.3968 31.6559 18.6962C31.9294 18.9956 32.083 19.4017 32.083 19.8252C32.083 20.2486 31.9294 20.6548 31.6559 20.9542C31.3824 21.2536 31.0115 21.4218 30.6247 21.4218H29.1664C28.7796 21.4218 28.4086 21.2536 28.1352 20.9542C27.8617 20.6548 27.708 20.2486 27.708 19.8252C27.708 19.4017 27.8617 18.9956 28.1352 18.6962C28.4086 18.3968 28.7796 18.2286 29.1664 18.2286H30.6247ZM7.18781 8.53542C7.43893 8.26052 7.77303 8.09537 8.12744 8.07098C8.48186 8.04658 8.83222 8.1646 9.11281 8.4029L9.2499 8.53542L10.2809 9.66424C10.5425 9.95156 10.6943 10.3371 10.7056 10.7426C10.717 11.148 10.5869 11.543 10.3418 11.8473C10.0968 12.1515 9.75513 12.3423 9.38629 12.3807C9.01744 12.4192 8.64905 12.3025 8.35594 12.0544L8.21885 11.9219L7.18781 10.7931C6.91442 10.4936 6.76083 10.0876 6.76083 9.66424C6.76083 9.24087 6.91442 8.83483 7.18781 8.53542ZM27.8116 8.53542C28.085 8.83483 28.2385 9.24087 28.2385 9.66424C28.2385 10.0876 28.085 10.4936 27.8116 10.7931L26.7805 11.9219C26.646 12.0744 26.4851 12.196 26.3071 12.2797C26.1292 12.3634 25.9379 12.4074 25.7442 12.4092C25.5506 12.4111 25.3586 12.3707 25.1793 12.2904C25.0001 12.2101 24.8373 12.0916 24.7004 11.9417C24.5634 11.7917 24.4551 11.6135 24.3818 11.4173C24.3085 11.221 24.2716 11.0108 24.2733 10.7988C24.275 10.5868 24.3152 10.3773 24.3916 10.1825C24.4681 9.9877 24.5792 9.81152 24.7184 9.66424L25.7495 8.53542C26.023 8.2361 26.3938 8.06795 26.7805 8.06795C27.1672 8.06795 27.5381 8.2361 27.8116 8.53542ZM17.4997 3.85889C17.8865 3.85889 18.2574 4.0271 18.5309 4.32653C18.8044 4.62596 18.958 5.03206 18.958 5.45552V7.05215C18.958 7.4756 18.8044 7.88171 18.5309 8.18114C18.2574 8.48056 17.8865 8.64878 17.4997 8.64878C17.1129 8.64878 16.742 8.48056 16.4685 8.18114C16.195 7.88171 16.0414 7.4756 16.0414 7.05215V5.45552C16.0414 5.03206 16.195 4.62596 16.4685 4.32653C16.742 4.0271 17.1129 3.85889 17.4997 3.85889Z" fill="#616161"/>
</svg>
