<svg width="29" height="15" viewBox="0 0 29 15" fill="none" xmlns="http://www.w3.org/2000/svg">
<path d="M0.337671 1.93406L13.3841 14.6516C13.6133 14.875 13.9206 15 14.2406 15C14.5606 15 14.868 14.875 15.0971 14.6516L28.1485 1.93406C28.2553 1.83001 28.3403 1.70561 28.3983 1.56819C28.4563 1.43078 28.4861 1.28314 28.4861 1.13399C28.4861 0.984844 28.4563 0.837203 28.3983 0.699791C28.3403 0.562378 28.2553 0.437978 28.1485 0.33393C27.9293 0.119852 27.6351 4.08514e-07 27.3288 4.08514e-07C27.0224 4.08514e-07 26.7282 0.119852 26.5091 0.33393L14.2406 12.2932L1.97461 0.33393C1.75558 0.120587 1.4619 0.00119874 1.15614 0.00119874C0.850379 0.00119874 0.556703 0.120587 0.337671 0.33393C0.230808 0.437978 0.145871 0.562378 0.0878755 0.699791C0.0298797 0.837203 0 0.984844 0 1.13399C0 1.28314 0.0298797 1.43078 0.0878755 1.56819C0.145871 1.70561 0.230808 1.83001 0.337671 1.93406Z" fill="#BC5F6A"/>
</svg>
