<svg width="8" height="14" viewBox="0 0 8 14" fill="none" xmlns="http://www.w3.org/2000/svg">
<path d="M1.11394 12.5804C1.05533 12.6425 1.00951 12.7154 0.979102 12.7951C0.94869 12.8749 0.934278 12.9598 0.936691 13.0451C0.939104 13.1304 0.958294 13.2144 0.993165 13.2923C1.02804 13.3701 1.0779 13.4404 1.13992 13.499C1.20194 13.5576 1.2749 13.6034 1.35463 13.6338C1.43435 13.6643 1.51929 13.6787 1.60459 13.6763C1.68988 13.6738 1.77387 13.6547 1.85175 13.6198C1.92963 13.5849 1.99988 13.535 2.05849 13.473L7.58024 7.62645C7.69428 7.50584 7.75781 7.34615 7.75781 7.18016C7.75781 7.01418 7.69428 6.85449 7.58024 6.73388L2.05849 0.886658C2.00026 0.82328 1.93003 0.772102 1.85186 0.736097C1.7737 0.700092 1.68916 0.679978 1.60315 0.676923C1.51714 0.673867 1.43139 0.687931 1.35086 0.718298C1.27034 0.748665 1.19665 0.794728 1.13408 0.853814C1.07151 0.9129 1.0213 0.983829 0.986372 1.06248C0.951445 1.14114 0.932494 1.22595 0.93062 1.31199C0.928746 1.39803 0.943986 1.48358 0.975457 1.56368C1.00693 1.64378 1.054 1.71683 1.11394 1.77858L6.21475 7.18016L1.11394 12.5804Z" fill="#E3A6A1"/>
</svg>
