<svg width="23" height="23" viewBox="0 0 23 23" fill="none" xmlns="http://www.w3.org/2000/svg">
<path d="M3.30064 3.31205L3.30025 3.31244C1.72774 4.89151 0.816901 7.01103 0.753541 9.23864C0.690181 11.4662 1.47907 13.6341 2.95929 15.3C4.4395 16.9659 6.49952 18.0043 8.71912 18.2034C10.8649 18.3959 13.0035 17.79 14.7274 16.5064L19.9176 21.6966L20.0944 21.8734L20.2712 21.6966L21.6852 20.2826L21.8619 20.1059L21.6852 19.9291L16.4952 14.7391C17.7836 13.0157 18.3934 10.8753 18.2028 8.72673C18.0056 6.50425 16.9669 4.44105 15.299 2.95903C13.631 1.47702 11.46 0.68817 9.22972 0.753788C6.99947 0.819407 4.87854 1.73454 3.30064 3.31205ZM11.8767 3.69899C12.6372 4.02018 13.3266 4.48887 13.905 5.07799C15.0593 6.25372 15.7027 7.83769 15.6951 9.48533C15.6875 11.133 15.0296 12.711 13.8646 13.876C12.6995 15.0411 11.1215 15.699 9.47387 15.7065C7.82624 15.7141 6.24226 15.0708 5.06654 13.9165C4.47742 13.3381 4.00872 12.6487 3.68753 11.8881C3.36634 11.1276 3.19902 10.3109 3.19522 9.48533C3.19143 8.65974 3.35124 7.84159 3.66543 7.07811C3.97962 6.31464 4.44196 5.62098 5.02574 5.03719C5.60952 4.45341 6.30318 3.99107 7.06666 3.67689C7.83013 3.3627 8.64829 3.20288 9.47387 3.20668C10.2995 3.21047 11.1161 3.3778 11.8767 3.69899Z" fill="#E3A6A1" stroke="#E3A6A1" stroke-width="0.5"/>
</svg>
